<svg xmlns="http://www.w3.org/2000/svg" width="32" height="32" viewBox="0 0 32 32" fill="none">
  <circle cx="16" cy="16" r="16" fill="#16a34a" />
  <path d="M16 6C10.48 6 6 10.48 6 16C6 21.52 10.48 26 16 26C21.52 26 26 21.52 26 16C26 10.48 21.52 6 16 6ZM16 24C11.59 24 8 20.41 8 16C8 11.59 11.59 8 16 8C20.41 8 24 11.59 24 16C24 20.41 20.41 24 16 24Z" fill="white" />
  <path d="M17 11H15V17H21V15H17V11Z" fill="white" />
  <path d="M16 13C13.24 13 11 15.24 11 18C11 20.76 13.24 23 16 23C18.76 23 21 20.76 21 18H19C19 19.66 17.66 21 16 21C14.34 21 13 19.66 13 18C13 16.34 14.34 15 16 15V13Z" fill="white" />
</svg>
